HIERARCHY
ROOT Hips
{
	OFFSET 0.000000 0.000000 0.000000 
	CHANNELS 6 Xposition Yposition Zposition Yrotation Zrotation Xrotation 
	JOINT Lumbar
	{
		OFFSET 0.000000 0.000000 0.000000 
		CHANNELS 3 Zrotation Xrotation Yrotation
		JOINT Neck
		{
			OFFSET 0.000000 0.445665 0.000000 
			CHANNELS 3 Zrotation Xrotation Yrotation
			End Site
			{
				OFFSET 0.000000 0.227535 0.000000 
			}
		}
		JOINT RightShoulder
		{
			OFFSET 0.019635 0.377685 0.194865 
			CHANNELS 3 Zrotation Xrotation Yrotation
			JOINT RightElbow
			{
				OFFSET 0.000000 -0.243375 0.000000 
				CHANNELS 2 Zrotation Yrotation
				JOINT RightWrist
				{
					OFFSET 0.000000 -0.264825 0.000000 
					CHANNELS 2 Zrotation Xrotation
					End Site
					{
						OFFSET 0.006600 -0.176220 0.000990 
					}
				}
			}
		}
		JOINT LeftShoulder
		{
			OFFSET 0.019635 0.377685 -0.194865 
			CHANNELS 3 Zrotation Xrotation Yrotation
			JOINT LeftElbow
			{
				OFFSET 0.000000 -0.243375 0.000000 
				CHANNELS 2 Zrotation Yrotation
				JOINT LeftWrist
				{
					OFFSET 0.000000 -0.264825 0.000000 
					CHANNELS 2 Zrotation Xrotation
					End Site
					{
						OFFSET 0.006600 -0.176220 -0.000990 
					}
				}
			}
		}
	}
	JOINT RightHip
	{
		OFFSET 0.052140 -0.069960 0.075570 
		CHANNELS 3 Zrotation Xrotation Yrotation
		JOINT RightKnee
		{
			OFFSET 0.000000 -0.402270 0.000000 
			CHANNELS 1 Zrotation
			JOINT RightAnkle
			{
				OFFSET 0.000000 -0.404085 0.000000 
				CHANNELS 3 Zrotation Xrotation Yrotation
				End Site
				{
					OFFSET 0.204105 -0.089430 0.008415 
				}
			}
		}
	}
	JOINT LeftHip
	{
		OFFSET 0.052140 -0.069960 -0.075570 
		CHANNELS 3 Zrotation Xrotation Yrotation
		JOINT LeftKnee
		{
			OFFSET 0.000000 -0.402270 0.000000 
			CHANNELS 1 Zrotation
			JOINT LeftAnkle
			{
				OFFSET 0.000000 -0.404085 0.000000 
				CHANNELS 3 Zrotation Xrotation Yrotation
				End Site
				{
					OFFSET 0.204105 -0.089430 -0.008415 
				}
			}
		}
	}
}
MOTION
Frames: 18
Frame Time: 0.02
-0.54835 -0.26782 -0.00243 536.29351 -16.90385 -1.14434 24.31585 0.47683 6.90049 -19.74611 -0.93512 -0.83079 169.88197 -148.75579 -90.01166 115.60469 68.70885 -79.69835 -22.97463 169.88193 152.46939 90.01163 119.46313 -67.65557 -79.69813 22.97187 77.27465 -7.96756 -3.27109 -90.08328 -5.79775 -2.52094 -1.88707 88.58518 12.30105 -12.44417 -100.676 -13.32311 2.77565 2.37886
-0.54612 -0.26878 -0.00172 536.30924 -16.26486 -1.15875 24.37163 0.54611 6.60052 -19.80732 -0.99923 -0.83079 169.88197 -148.82134 -90.01165 115.10113 68.61848 -79.69831 -22.97412 169.88193 153.02448 90.01163 118.94304 -67.5695 -79.69813 22.97186 77.25514 -8.00811 -3.22631 -89.70363 -5.83982 -2.5574 -1.91044 88.6332 11.94462 -12.33403 -101.1962 -13.53545 2.7817 2.39157
-0.54373 -0.26977 -0.00092 536.35858 -15.63713 -1.16988 24.2958 0.64804 6.19795 -19.86027 -1.09421 -0.83079 169.88196 -148.97757 -90.01165 114.788 68.52238 -79.69826 -22.97349 169.88193 153.58095 90.01163 118.36371 -67.47461 -79.69813 22.97185 77.3421 -8.01522 -3.10947 -89.20903 -5.88225 -2.60331 -1.93964 88.82245 11.54184 -12.22599 -101.81825 -13.79864 2.75805 2.38897
-0.54143 -0.27075 -0.0002 536.39348 -15.00146 -1.18439 24.26962 0.73248 5.84016 -19.92813 -1.17032 -0.83079 169.88195 -149.09766 -90.01164 114.39448 68.43072 -79.69822 -22.97296 169.88193 154.12659 90.01163 117.81536 -67.38511 -79.69813 22.97183 77.37671 -8.04388 -3.03575 -88.76095 -5.92671 -2.6389 -1.96297 88.94818 11.17078 -12.10658 -102.40596 -14.0338 2.74713 2.39267
-0.53908 -0.27167 0.00068 536.42418 -14.3788 -1.1899 24.28846 0.82919 5.49121 -19.95043 -1.26907 -0.83079 169.88194 -149.19185 -90.01164 113.97651 68.33042 -79.69817 -22.97226 169.88194 154.7156 90.01163 117.24791 -67.2896 -79.69813 22.97182 77.428 -8.05173 -2.92351 -88.33129 -5.96243 -2.69901 -1.99942 89.06758 10.7494 -12.03151 -102.93833 -14.2913 2.73963 2.39934
-0.5368 -0.27274 0.00126 536.47204 -13.73214 -1.21332 24.18204 0.90751 5.09978 -20.06598 -1.32705 -0.83079 169.88194 -149.36315 -90.01163 113.65503 68.24706 -79.69813 -22.97187 169.88194 155.21425 90.01163 116.70935 -67.20463 -79.69813 22.97181 77.46926 -8.09221 -2.87165 -87.83801 -6.01619 -2.71108 -2.01033 89.23535 10.42456 -11.86337 -103.613 -14.51308 2.71816 2.39624
-0.53469 -0.2742 0.00095 536.55717 -13.00661 -1.29263 23.75482 0.92925 4.60743 -20.42938 -1.26601 -0.83079 169.88195 -149.72737 -90.01164 113.54205 68.21223 -79.69818 -22.97241 169.88194 155.46598 90.01163 116.2363 -67.15057 -79.69813 22.9718 77.46415 -8.23646 -3.01305 -87.19924 -6.12018 -2.58296 -1.94654 89.49857 10.36864 -11.45143 -104.64326 -14.63203 2.66192 2.36823
-0.53266 -0.2758 0.00033 536.65882 -12.25842 -1.38929 23.20714 0.93088 4.0773 -20.8883 -1.16233 -0.83079 169.88196 -150.16685 -90.01165 113.52144 68.1947 -79.69824 -22.97325 169.88194 155.62624 90.01163 115.80028 -67.10758 -79.69813 22.97178 77.44397 -8.41281 -3.21542 -86.50097 -6.24208 -2.40725 -1.85742 89.80657 10.41341 -10.94373 -105.81544 -14.71178 2.59317 2.33114
-0.5306 -0.27732 -0.00013 536.75428 -11.52631 -1.47447 22.7187 0.94009 3.56982 -21.31127 -1.07715 -0.83079 169.88197 -150.57043 -90.01165 113.46549 68.16912 -79.6983 -22.97393 169.88194 155.82635 90.01163 115.36525 -67.05973 -79.69813 22.97176 77.42598 -8.57021 -3.38338 -85.82932 -6.3555 -2.25677 -1.78172 90.09706 10.41916 -10.47048 -106.9322 -14.80371 2.53241 2.29929
-0.52849 -0.27891 -0.00064 536.84545 -10.76881 -1.57448 22.20618 0.95679 3.03532 -21.70421 -0.99691 -0.83079 169.88198 -150.98206 -90.01166 113.38783 68.14409 -79.69836 -22.97473 169.88194 156.03344 90.01163 114.85028 -67.01065 -79.69813 22.97175 77.43147 -8.74535 -3.57717 -85.15495 -6.47069 -2.09123 -1.69808 90.38102 10.39639 -10.03391 -108.0168 -14.92049 2.46113 2.26234
-0.52652 -0.2804 -0.00113 536.9489 -10.06044 -1.64801 21.71762 0.95301 2.54987 -22.18035 -0.89572 -0.83079 169.88198 -151.39641 -90.01167 113.37529 68.12215 -79.69841 -22.97535 169.88194 156.20464 90.01163 114.51473 -66.96711 -79.69812 22.97173 77.38293 -8.89108 -3.7326 -84.47411 -6.58604 -1.94587 -1.62498 90.68662 10.45551 -9.50028 -109.1974 -14.97643 2.40889 2.23391
-0.52497 -0.28162 -0.00151 537.08359 -9.47835 -1.64205 21.31917 0.89462 2.20633 -22.88076 -0.74796 -0.83079 169.88198 -151.77587 -90.01167 113.51583 68.10418 -79.69842 -22.97547 169.88194 156.29609 90.01163 114.6372 -66.9342 -79.69812 22.97172 77.19054 -8.95182 -3.76649 -83.7875 -6.701 -1.86592 -1.5862 91.04684 10.73431 -8.70338 -110.63675 -14.86504 2.41465 2.23238
-0.52358 -0.28273 -0.00187 537.22965 -8.94945 -1.60915 20.95077 0.81667 1.91468 -23.65805 -0.58042 -0.83079 169.88198 -152.15942 -90.01167 113.7189 68.08884 -79.69841 -22.9754 169.88194 156.35538 90.01163 114.94439 -66.9069 -79.69812 22.97171 76.94391 -8.98124 -3.75992 -83.09807 -6.81484 -1.80826 -1.55905 91.42519 11.08906 -7.81534 -112.16167 -14.69461 2.43966 2.23955
-0.52212 -0.28387 -0.00224 537.36948 -8.40558 -1.59015 20.57277 0.7495 1.6014 -24.38875 -0.42104 -0.83079 169.88198 -152.55652 -90.01167 113.89459 68.07252 -79.69841 -22.9754 169.88194 156.43103 90.01163 115.18614 -66.87834 -79.69812 22.9717 76.71997 -9.02249 -3.77301 -82.41143 -6.92689 -1.74166 -1.52716 91.79118 11.39714 -6.98153 -113.6288 -14.55752 2.45453 2.24212
-0.52066 -0.28509 -0.00258 537.51446 -7.82104 -1.56525 20.17294 0.67378 1.27774 -25.17298 -0.26305 -0.83079 169.88198 -152.89164 -90.01167 114.06769 68.05583 -79.69842 -22.97547 169.88194 156.49506 90.01163 115.35173 -66.84466 -79.69812 22.97169 76.50205 -9.07504 -3.78381 -81.71391 -7.04929 -1.66837 -1.49206 92.17759 11.75933 -6.09126 -115.18226 -14.39395 2.47505 2.24728
-0.51922 -0.28612 -0.00299 537.65114 -7.33544 -1.54541 19.82781 0.61135 0.98945 -25.86146 -0.09881 -0.83079 169.88198 -153.35537 -90.01167 114.26176 68.04041 -79.69841 -22.97535 169.88194 156.5782 90.01163 115.71844 -66.8229 -79.69812 22.97169 76.26117 -9.09614 -3.78774 -81.04215 -7.1496 -1.61495 -1.46677 92.52347 12.02643 -5.29701 -116.57247 -14.26907 2.48825 2.24899
-0.51778 -0.2867 -0.0036 537.76255 -7.09956 -1.55115 19.62306 0.59155 0.77839 -26.27662 0.08413 -0.83079 169.88197 -154.17629 -90.01166 114.48123 68.02675 -79.69836 -22.97474 169.88194 156.71106 90.01163 116.60262 -66.83199 -79.69812 22.97172 75.95046 -9.03857 -3.7932 -80.41706 -7.18945 -1.61092 -1.46562 92.76741 12.00363 -4.80036 -117.50665 -14.29045 2.47935 2.24129
-0.51636 -0.2871 -0.00428 537.86523 -6.9637 -1.56196 19.47369 0.58573 0.60267 -26.59022 0.27123 -0.83079 169.88196 -155.12507 -90.01165 114.72246 68.01433 -79.6983 -22.97395 169.88193 156.86684 90.01163 117.68089 -66.85287 -79.69813 22.97176 75.6223 -8.95037 -3.79102 -79.82297 -7.20696 -1.62635 -1.4741 92.96718 11.88329 -4.40187 -118.27037 -14.34814 2.46213 2.22952
